# xmcd
#
# Track frame offsets: 
#        187
#        9307
#        21982
#        34300
#
# Disc length: 610 seconds
#
# Revision: 0
# Processed by: cddbd v1.4PL0 Copyright (c) Steve Scherf et al.
# Submitted via: ExactAudioCopy v0.90a11
#
DISCID=27026004
DTITLE=Patsy Cline - Vintage Gold
DYEAR=1900
DGENRE=
TTITLE0=Walking After Midnight
TTITLE1=I Fall To Pieces
TTITLE2=Crazy
TTITLE3=Sweet Dreams Of You
EXTD=
EXTT0=
EXTT1=
EXTT2=
EXTT3=
PLAYORDER=
